<svg width="14" height="9" viewBox="0 0 14 9" fill="none" xmlns="http://www.w3.org/2000/svg">
<path d="M13.5 5C13.5 6.1 13.1083 7.04167 12.325 7.825C11.5417 8.60833 10.6 9 9.5 9C8.4 9 7.45833 8.60833 6.675 7.825C5.89167 7.04167 5.5 6.1 5.5 5L5.5 3.5C5.5 3.08333 5.35417 2.72917 5.0625 2.4375C4.77083 2.14583 4.41667 2 4 2C3.58333 2 3.22917 2.14583 2.9375 2.4375C2.64583 2.72917 2.5 3.08333 2.5 3.5L2.5 7C2.5 7.28333 2.40417 7.52083 2.2125 7.7125C2.02083 7.90417 1.78333 8 1.5 8C1.21667 8 0.979167 7.90417 0.7875 7.7125C0.595834 7.52083 0.5 7.28333 0.5 7L0.5 3.5C0.5 2.53333 0.841667 1.70833 1.525 1.025C2.20833 0.341667 3.03333 -1.10736e-07 4 -1.5299e-07C4.96667 -1.95244e-07 5.79167 0.341667 6.475 1.025C7.15833 1.70833 7.5 2.53333 7.5 3.5L7.5 5C7.5 5.55 7.69583 6.02083 8.0875 6.4125C8.47917 6.80417 8.95 7 9.5 7C10.05 7 10.5208 6.80417 10.9125 6.4125C11.3042 6.02083 11.5 5.55 11.5 5L11.5 3L11.5 2L12.5 2L13.5 2L13.5 3L13.5 5Z" fill="#CF95E9"/>
<rect y="5.5" width="3" height="3" rx="1.5" fill="#CF95E9"/>
<rect x="11" y="0.5" width="3" height="3" rx="1.5" fill="#CF95E9"/>
</svg>
