<svg width="12" height="10" viewBox="0 0 12 10" fill="none" xmlns="http://www.w3.org/2000/svg">
<path d="M12 4.9994C12 5.1888 11.9241 5.37043 11.7891 5.50436C11.6541 5.63828 11.471 5.71351 11.28 5.71351H2.46045L5.5515 8.77882C5.68676 8.91298 5.76274 9.09493 5.76274 9.28465C5.76274 9.47437 5.68676 9.65632 5.5515 9.79048C5.41625 9.92463 5.23281 10 5.04153 10C4.85025 10 4.66681 9.92463 4.53155 9.79048L0.211758 5.50583C0.144638 5.43948 0.0913816 5.36065 0.0550435 5.27385C0.0187053 5.18705 0 5.09399 0 5C0 4.90601 0.0187053 4.81295 0.0550435 4.72615C0.0913816 4.63935 0.144638 4.56052 0.211758 4.49417L4.53155 0.20952C4.59852 0.143094 4.67803 0.090402 4.76553 0.0544524C4.85303 0.0185029 4.94682 0 5.04153 0C5.13624 0 5.23002 0.0185029 5.31753 0.0544524C5.40503 0.090402 5.48453 0.143094 5.5515 0.20952C5.61848 0.275946 5.6716 0.354806 5.70784 0.441596C5.74409 0.528386 5.76274 0.621406 5.76274 0.715347C5.76274 0.809288 5.74409 0.902309 5.70784 0.989099C5.6716 1.07589 5.61848 1.15475 5.5515 1.22117L2.46045 4.2853H11.28C11.471 4.2853 11.6541 4.36053 11.7891 4.49445C11.9241 4.62837 12 4.81001 12 4.9994Z" fill="white"/>
</svg>
