<svg width="13" height="13" viewBox="0 0 13 13" fill="none" xmlns="http://www.w3.org/2000/svg">
<path d="M12.6953 3.20942L9.79107 0.304681C9.69449 0.208087 9.57983 0.131463 9.45364 0.079185C9.32744 0.0269072 9.19218 0 9.05559 0C8.91899 0 8.78373 0.0269072 8.65754 0.079185C8.53134 0.131463 8.41668 0.208087 8.3201 0.304681L0.304859 8.32017C0.207864 8.41639 0.130965 8.53093 0.0786296 8.65713C0.0262947 8.78333 -0.00043124 8.91868 5.26178e-06 9.0553V11.96C5.26178e-06 12.2358 0.109578 12.5004 0.304618 12.6954C0.499658 12.8904 0.764189 13 1.04002 13H3.9449C4.08153 13.0004 4.21688 12.9737 4.34308 12.9214C4.46929 12.869 4.58384 12.7921 4.68006 12.6952L12.6953 4.68031C12.7919 4.58374 12.8685 4.46909 12.9208 4.3429C12.9731 4.21671 13 4.08146 13 3.94487C13 3.80828 12.9731 3.67303 12.9208 3.54684C12.8685 3.42065 12.7919 3.30599 12.6953 3.20942ZM10.4001 5.50448L7.49524 2.60039L9.05526 1.04045L11.9601 3.94454L10.4001 5.50448Z" fill="white"/>
</svg>
