<svg width="25" height="16" viewBox="0 0 25 16" fill="none" xmlns="http://www.w3.org/2000/svg">
<path d="M24.1074 8.88889C24.1074 10.8444 23.4079 12.5185 22.0091 13.9111C20.6103 15.3037 18.9288 16 16.9645 16C15.0002 16 13.3187 15.3037 11.9199 13.9111C10.521 12.5185 9.82164 10.8444 9.82164 8.88889L9.82164 6.22222C9.82164 5.48148 9.56122 4.85185 9.04039 4.33334C8.51955 3.81482 7.88711 3.55556 7.14307 3.55556C6.39902 3.55556 5.76658 3.81482 5.24574 4.33334C4.72491 4.85185 4.46449 5.48148 4.46449 6.22222L4.4645 12.4444C4.4645 12.9481 4.29336 13.3704 3.9511 13.7111C3.60884 14.0519 3.18473 14.2222 2.67878 14.2222C2.17283 14.2222 1.74872 14.0519 1.40646 13.7111C1.0642 13.3704 0.893067 12.9481 0.893067 12.4444L0.893066 6.22222C0.893066 4.50371 1.50319 3.03704 2.72342 1.82222C3.94366 0.60741 5.41688 1.82969e-06 7.14307 1.75458e-06C8.86926 1.67946e-06 10.3425 0.60741 11.5627 1.82222C12.7829 3.03704 13.3931 4.50371 13.3931 6.22222L13.3931 8.88889C13.3931 9.86667 13.7428 10.7037 14.4422 11.4C15.1416 12.0963 15.9824 12.4444 16.9645 12.4444C17.9466 12.4444 18.7874 12.0963 19.4868 11.4C20.1862 10.7037 20.5359 9.86667 20.5359 8.88889L20.5359 5.33333L20.5359 3.55556L22.3216 3.55556L24.1074 3.55556L24.1074 5.33333L24.1074 8.88889Z" fill="#CF95E9"/>
<rect y="9.77777" width="5.35714" height="5.33333" rx="2.66667" fill="#CF95E9"/>
<rect x="19.6431" y="0.888885" width="5.35714" height="5.33333" rx="2.66667" fill="#CF95E9"/>
</svg>
